<?xml version="1.0" encoding="utf-8"?>
<svg viewBox="0 0 500 500" xmlns="http://www.w3.org/2000/svg">
  <rect width="500" height="500" fill="rgb(0, 122, 204)"/>
  <path d="M 107.886 338.152 L 50.72 266.875 L 50.72 266.614 L 107.886 195.333 L 115.905 205.076 L 66.345 266.875 L 115.905 328.412 L 107.886 338.152 Z M 384.095 328.412 L 433.655 266.875 L 384.095 205.076 L 392.114 195.333 L 449.28 266.614 L 449.28 266.875 L 392.114 338.152 L 384.095 328.412 Z" style="fill: rgb(255, 255, 255); white-space: pre;" transform="matrix(1, -0.000001, 0.000001, 1, -0.000267, 0.00025)"/>
  <path d="M 288.782 286.473 C 296.337 285.692 302.065 279.178 301.805 271.358 C 301.544 263.542 295.035 257.289 287.218 257.289 L 286.697 257.289 C 278.62 257.549 272.367 264.324 272.628 272.404 C 272.888 276.312 274.452 279.699 276.797 282.044 C 267.938 299.501 254.39 312.267 234.068 322.949 C 220.259 330.245 205.929 332.85 191.599 331.026 C 179.875 329.463 170.756 324.252 165.024 315.654 C 156.687 302.888 155.905 289.079 162.94 275.27 C 167.89 265.366 175.706 258.071 180.657 254.423 C 179.614 251.036 178.051 245.304 177.27 241.135 C 139.491 268.492 143.399 305.493 154.863 322.949 C 163.461 335.976 180.917 344.053 200.197 344.053 C 205.408 344.053 210.619 343.532 215.83 342.229 C 249.179 335.716 274.452 315.915 288.782 286.473 Z M 334.633 254.162 C 314.832 230.974 285.655 218.208 252.306 218.208 L 248.137 218.208 C 245.792 213.518 240.842 210.391 235.37 210.391 L 234.849 210.391 C 226.773 210.652 220.52 217.426 220.78 225.503 C 221.041 233.319 227.554 239.572 235.37 239.572 L 235.892 239.572 C 241.623 239.312 246.574 235.664 248.658 230.714 L 253.348 230.714 C 273.149 230.714 291.908 236.446 308.839 247.649 C 321.867 256.247 331.246 267.45 336.457 281.002 C 340.886 291.945 340.626 302.627 335.936 311.746 C 328.641 325.555 316.395 333.111 300.242 333.111 C 289.824 333.111 279.923 329.984 274.712 327.639 C 271.846 330.245 266.635 334.413 262.988 337.019 C 274.191 342.229 285.655 345.095 296.598 345.095 C 321.606 345.095 340.105 331.287 347.139 317.478 C 354.695 302.367 354.174 276.312 334.633 254.162 Z M 202.282 290.903 C 202.542 298.719 209.056 304.972 216.872 304.972 L 217.393 304.972 C 225.47 304.711 231.723 297.937 231.462 289.861 C 231.202 282.044 224.688 275.791 216.872 275.791 L 216.351 275.791 C 215.83 275.791 215.048 275.791 214.527 276.052 C 203.845 258.331 199.416 239.051 200.979 218.208 C 202.021 202.575 207.232 189.027 216.351 177.824 C 223.907 168.184 238.497 163.494 248.398 163.233 C 276.015 162.712 287.739 197.104 288.521 210.912 C 291.908 211.694 297.636 213.518 301.544 214.821 C 298.418 172.613 272.367 150.727 247.355 150.727 C 223.907 150.727 202.282 167.662 193.684 192.674 C 181.699 226.024 189.515 258.071 204.105 283.347 C 202.803 285.171 202.021 288.037 202.282 290.903 Z" style="fill: rgb(255, 255, 255);" transform="matrix(1, 0.000003, -0.000003, 1, 0.000744, -0.000748)"/>
  <path d="M 175.206 400.24 L 167.916 400.24 L 167.916 414.79 L 163.846 414.79 L 163.846 379.81 L 173.436 379.81 C 177.729 379.81 180.899 380.63 182.946 382.27 C 184.999 383.917 186.026 386.39 186.026 389.69 C 186.026 394.317 183.679 397.443 178.986 399.07 L 188.486 414.79 L 183.676 414.79 L 175.206 400.24 Z M 167.916 383.38 L 167.916 396.75 L 173.486 396.75 C 176.359 396.75 178.466 396.18 179.806 395.04 C 181.146 393.9 181.816 392.19 181.816 389.91 C 181.816 387.597 181.133 385.93 179.766 384.91 C 178.406 383.89 176.216 383.38 173.196 383.38 L 167.916 383.38 ZM 221.049 411.15 L 221.049 414.79 L 201.549 414.79 L 201.549 379.81 L 221.049 379.81 L 221.049 383.42 L 205.619 383.42 L 205.619 394.69 L 220.119 394.69 L 220.119 398.28 L 205.619 398.28 L 205.619 411.15 L 221.049 411.15 ZM 247.163 383.42 L 247.163 414.79 L 243.093 414.79 L 243.093 383.42 L 232.013 383.42 L 232.013 379.81 L 258.233 379.81 L 258.233 383.42 L 247.163 383.42 ZM 293.588 379.81 L 297.648 379.81 L 297.648 402.44 C 297.648 406.433 296.444 409.57 294.038 411.85 C 291.631 414.13 288.321 415.27 284.108 415.27 C 279.894 415.27 276.638 414.12 274.338 411.82 C 272.031 409.527 270.878 406.37 270.878 402.35 L 270.878 379.81 L 274.948 379.81 L 274.948 402.64 C 274.948 405.553 275.744 407.793 277.338 409.36 C 278.931 410.92 281.274 411.7 284.368 411.7 C 287.321 411.7 289.594 410.917 291.188 409.35 C 292.788 407.777 293.588 405.523 293.588 402.59 L 293.588 379.81 ZM 326.258 396.37 L 337.938 414.79 L 333.318 414.79 L 323.918 399.41 L 314.348 414.79 L 310.038 414.79 L 321.668 396.51 L 310.828 379.81 L 315.328 379.81 L 324.008 393.66 L 332.768 379.81 L 337.098 379.81 L 326.258 396.37 Z" transform="matrix(1, 0, 0, 1, 0, 0)" style="fill: rgb(255, 255, 255); white-space: pre;"/>
</svg>